<?xml version="1.0" encoding="utf-8"?>
<svg version="1.1" xmlns:xlink="http://www.w3.org/1999/xlink" width="16px" height="15px" xmlns="http://www.w3.org/2000/svg">
  <g transform="matrix(1 0 0 1 -1173 -506 )">
    <path d="M 11.1442307692308 11.3797433035714  C 11.4134615384615 11.1090959821429  11.5480769230769 10.7700892857143  11.5480769230769 10.3627232142857  C 11.5480769230769 10.0446428571429  11.5304487179487 9.74609375  11.4951923076923 9.46707589285714  C 11.4599358974359 9.18805803571428  11.3926282051282 8.90764508928571  11.2932692307692 8.62583705357143  C 11.1939102564103 8.34402901785714  11.0673076923077 8.10407366071428  10.9134615384615 7.90597098214286  C 10.7596153846154 7.70786830357143  10.5544871794872 7.54603794642857  10.2980769230769 7.42047991071429  C 10.0416666666667 7.294921875  9.75 7.23214285714286  9.42307692307692 7.23214285714286  C 9.38461538461539 7.25446428571428  9.27724358974359 7.31166294642857  9.10096153846154 7.40373883928571  C 8.92467948717949 7.49581473214286  8.78846153846154 7.56417410714286  8.69230769230769 7.60881696428571  C 8.59615384615385 7.65345982142857  8.46634615384615 7.70926339285714  8.30288461538461 7.77622767857143  C 8.13942307692308 7.84319196428571  7.9823717948718 7.890625  7.83173076923077 7.91852678571429  C 7.68108974358974 7.94642857142857  7.53205128205128 7.96037946428571  7.38461538461539 7.96037946428571  C 7.23717948717949 7.96037946428571  7.08814102564103 7.94642857142857  6.9375 7.91852678571429  C 6.78685897435897 7.890625  6.62980769230769 7.84319196428571  6.46634615384615 7.77622767857143  C 6.30288461538461 7.70926339285714  6.17307692307692 7.65345982142857  6.07692307692308 7.60881696428571  C 5.98076923076923 7.56417410714286  5.84455128205128 7.49581473214286  5.66826923076923 7.40373883928571  C 5.49198717948718 7.31166294642857  5.38461538461539 7.25446428571428  5.34615384615385 7.23214285714286  C 5.01923076923077 7.23214285714286  4.7275641025641 7.294921875  4.47115384615385 7.42047991071429  C 4.21474358974359 7.54603794642857  4.00961538461539 7.70786830357143  3.85576923076923 7.90597098214286  C 3.70192307692308 8.10407366071428  3.57532051282051 8.34402901785714  3.47596153846154 8.62583705357143  C 3.37660256410256 8.90764508928571  3.30929487179487 9.18805803571428  3.27403846153846 9.46707589285714  C 3.23878205128205 9.74609375  3.22115384615385 10.0446428571429  3.22115384615385 10.3627232142857  C 3.22115384615385 10.7700892857143  3.35576923076923 11.1090959821429  3.625 11.3797433035714  C 3.89423076923077 11.650390625  4.22435897435897 11.7857142857143  4.61538461538461 11.7857142857143  L 10.1538461538462 11.7857142857143  C 10.5448717948718 11.7857142857143  10.875 11.650390625  11.1442307692308 11.3797433035714  Z M 9.14903846153846 6.92243303571429  C 9.63942307692308 6.49832589285714  9.88461538461539 5.98772321428571  9.88461538461539 5.390625  C 9.88461538461539 4.78794642857143  9.63942307692308 4.27455357142857  9.14903846153846 3.85044642857143  C 8.65865384615385 3.42633928571428  8.07051282051282 3.21428571428571  7.38461538461539 3.21428571428571  C 6.69871794871795 3.21428571428571  6.11057692307692 3.42633928571428  5.62019230769231 3.85044642857143  C 5.12980769230769 4.27455357142857  4.88461538461539 4.78794642857143  4.88461538461539 5.390625  C 4.88461538461539 5.98772321428571  5.12980769230769 6.49832589285714  5.62019230769231 6.92243303571429  C 6.11057692307692 7.34654017857143  6.69871794871795 7.55859375  7.38461538461539 7.55859375  C 8.07051282051282 7.55859375  8.65865384615385 7.34654017857143  9.14903846153846 6.92243303571429  Z M 15.9134615384615 9.71819196428572  C 15.9711538461538 9.76841517857143  16 9.83258928571428  16 9.91071428571428  L 16 11.5178571428571  C 16 11.5959821428571  15.9711538461538 11.66015625  15.9134615384615 11.7103794642857  C 15.8557692307692 11.7606026785714  15.7820512820513 11.7857142857143  15.6923076923077 11.7857142857143  L 14.7692307692308 11.7857142857143  L 14.7692307692308 13.6607142857143  C 14.7692307692308 14.0290178571429  14.6185897435897 14.3443080357143  14.3173076923077 14.6065848214286  C 14.0160256410256 14.8688616071429  13.6538461538462 15  13.2307692307692 15  L 1.53846153846154 15  C 1.11538461538462 15  0.753205128205128 14.8688616071429  0.451923076923077 14.6065848214286  C 0.150641025641026 14.3443080357143  0 14.0290178571429  0 13.6607142857143  L 0 1.33928571428571  C 0 0.970982142857144  0.150641025641026 0.655691964285713  0.451923076923077 0.393415178571429  C 0.753205128205128 0.131138392857143  1.11538461538462 0  1.53846153846154 0  L 13.2307692307692 0  C 13.6538461538462 0  14.0160256410256 0.131138392857143  14.3173076923077 0.393415178571429  C 14.6185897435897 0.655691964285713  14.7692307692308 0.970982142857144  14.7692307692308 1.33928571428571  L 14.7692307692308 3.21428571428571  L 15.6923076923077 3.21428571428571  C 15.7820512820513 3.21428571428571  15.8557692307692 3.23939732142857  15.9134615384615 3.28962053571429  C 15.9711538461538 3.33984375  16 3.40401785714286  16 3.48214285714286  L 16 5.08928571428571  C 16 5.16741071428571  15.9711538461538 5.23158482142857  15.9134615384615 5.28180803571429  C 15.8557692307692 5.33203125  15.7820512820513 5.35714285714286  15.6923076923077 5.35714285714286  L 14.7692307692308 5.35714285714286  L 14.7692307692308 6.42857142857143  L 15.6923076923077 6.42857142857143  C 15.7820512820513 6.42857142857143  15.8557692307692 6.45368303571429  15.9134615384615 6.50390625  C 15.9711538461538 6.55412946428571  16 6.61830357142857  16 6.69642857142857  L 16 8.30357142857143  C 16 8.38169642857143  15.9711538461538 8.44587053571428  15.9134615384615 8.49609375  C 15.8557692307692 8.54631696428572  15.7820512820513 8.57142857142857  15.6923076923077 8.57142857142857  L 14.7692307692308 8.57142857142857  L 14.7692307692308 9.64285714285714  L 15.6923076923077 9.64285714285714  C 15.7820512820513 9.64285714285714  15.8557692307692 9.66796875  15.9134615384615 9.71819196428572  Z " fill-rule="nonzero" fill="#4f9d37" stroke="none" transform="matrix(1 0 0 1 1173 506 )" />
  </g>
</svg>